<svg width="1217" height="1217" viewBox="0 0 1217 1217" fill="none" xmlns="http://www.w3.org/2000/svg">
<circle cx="608.5" cy="608.5" r="593.317" fill="#002F49" stroke="#669BBB" stroke-width="30.3656"/>
<path d="M414.428 338.543L414.043 338.346C407.688 338.346 401.912 344.273 401.912 350.792C401.912 357.312 407.688 363.239 414.043 363.239L416.161 361.856C419.049 361.856 421.938 360.276 424.056 358.893C424.056 361.856 425.404 363.239 426.174 363.239H431.18C431.18 363.239 432.528 361.066 433.298 358.893H438.305V360.276H436.957V453.134H563.852C567.511 433.377 585.226 417.966 605.252 417.966C625.278 417.966 633.75 426.067 641.645 438.513L645.881 441.477C651.658 444.44 655.894 448.787 658.783 453.924H772.969V361.066H771.621V359.683H776.628C776.628 361.856 777.976 363.239 778.746 363.239H783.752C783.752 363.239 785.1 362.647 785.87 359.683C787.988 361.856 787.411 362.647 793.765 362.647C800.12 362.647 805.896 356.719 805.896 350.2C805.896 343.68 800.312 337.753 793.765 337.753C787.218 337.753 787.988 339.333 785.87 340.716C785.87 338.543 784.522 337.16 783.752 337.16H778.746C778.746 337.16 777.398 339.333 776.628 341.507H771.621C771.621 340.124 771.044 339.333 770.273 339.333H437.92C437.92 339.333 437.342 339.333 436.572 341.507H431.565C431.565 339.333 430.217 337.95 429.447 337.95H424.441C423.671 337.95 423.093 338.543 422.323 341.507C420.205 339.926 417.316 338.543 414.428 338.543Z" fill="#F2F1EB"/>
<path d="M552.106 475.261V475.459H314.683L333.169 498.772H509.358C509.358 501.736 509.936 503.909 510.706 506.082H339.523L359.549 531.766H519.371C520.719 533.94 521.489 536.903 522.837 539.076H365.133L383.618 562.587H437.727C439.075 563.97 440.423 563.97 441.193 562.587H538.82C546.137 569.897 553.262 576.417 561.734 581.554C561.734 581.554 561.734 582.146 562.504 582.937V612.967C562.504 622.648 569.051 630.551 578.294 631.341V657.025C578.294 657.816 577.524 657.618 577.524 659.199V659.199C577.524 660.779 577.524 662.162 578.294 664.335H575.406V659.199C575.406 657.816 573.287 655.642 571.169 655.642C569.051 655.642 567.703 658.408 567.703 659.199C567.703 659.989 568.281 662.162 569.051 664.335H542.671V730.126H669.566V664.335H643.186C643.956 662.162 645.304 660.582 645.304 659.199C645.304 657.816 642.993 655.642 641.645 655.642C640.297 655.642 638.179 658.408 637.409 659.199V664.335H634.521C634.521 662.162 635.291 660.582 635.291 659.199C635.291 658.27 635.04 657.559 634.521 657.025V631.341C643.763 629.761 650.118 621.66 650.118 612.967V582.937C650.118 582.937 650.118 582.344 650.888 581.554C659.553 576.417 667.448 570.687 673.802 562.587H829.196L847.681 539.076H690.169C691.517 536.903 692.865 533.94 693.636 531.766H853.458L873.484 506.082H702.301C702.301 503.909 703.649 500.945 703.649 498.772H879.838L880.609 499.562L899.094 476.052H661.671C659.553 486.918 655.317 497.192 648.192 505.292C643.956 498.772 638.179 492.845 631.825 488.498C631.825 488.498 630.477 487.906 629.707 487.115C629.707 487.115 628.359 487.116 627.588 486.325H626.241V473.878H630.477C633.943 473.878 636.831 473.878 636.831 477.435C638.372 476.052 638.949 474.471 639.72 473.088C641.838 467.161 639.719 462.814 634.713 459.851L627.588 455.504C626.818 455.504 626.048 454.714 624.7 454.714C621.812 446.021 614.687 440.094 605.444 440.094C596.202 440.094 585.418 449.577 585.418 460.641V485.535C584.648 485.535 584.071 485.535 583.3 486.325C583.3 486.325 581.953 486.325 581.953 487.708C575.598 491.265 569.821 497.192 565.585 504.502C558.46 496.401 554.224 486.325 552.106 475.261Z" fill="#F2F1EB"/>
<path d="M660.516 794.929L660.708 794.336C663.019 819.823 663.019 844.716 666.485 870.401C666.485 872.771 665.137 874.154 665.137 876.328V899.839L665.153 899.779C666.683 894.088 667.477 891.135 675.92 888.182C686.511 883.835 694.406 877.118 703.649 868.425C710.003 861.905 712.121 856.768 720.016 852.422C725.793 849.458 729.259 845.704 732.917 841.358C732.917 829.701 732.917 811.327 735.806 802.634C735.806 800.461 738.694 799.671 740.812 805.598C742.93 787.421 742.93 761.737 745.819 750.081C746.396 759.564 749.284 805.795 749.284 834.245C752.751 810.142 754.291 812.908 762.764 793.941C769.31 779.321 772.006 763.911 772.777 747.117V659.396C772.006 663.743 770.659 667.497 769.888 671.843C769.888 667.497 769.888 662.36 768.54 658.013H769.31C768.54 653.667 766.422 649.913 766.422 645.566C766.422 641.22 768.54 622.846 768.54 617.709C768.54 612.572 763.534 614.153 764.304 608.226V585.505H684.393C680.734 588.271 677.076 591.235 673.61 594.198V612.572C673.61 623.439 669.951 632.922 662.827 641.022H692.673V753.044H520.719V641.022H550.758C544.211 633.712 539.975 623.636 539.975 612.572V594.198C536.316 592.025 532.658 588.469 529.192 585.505H436.572V611.782C440.808 622.846 442.926 630.156 445.044 643.986C440.038 635.293 437.92 640.232 436.572 651.296V747.117C436.572 756.601 437.92 768.455 440.808 777.148C442.926 782.285 444.467 785.841 445.815 790.978C450.051 811.525 463.722 807.969 467.958 834.245C467.958 817.452 470.654 806.388 471.425 795.522C473.543 805.005 475.661 826.935 479.897 829.899C482.593 832.072 487.022 816.859 488.37 810.932C489.91 827.726 493.376 842.346 494.146 856.966C501.271 870.796 514.75 866.449 520.527 886.206C520.527 875.34 519.179 853.41 520.527 842.346C521.297 835.628 526.303 830.492 527.651 823.972C529.769 803.622 529.769 783.865 531.117 763.318C533.235 797.102 534.583 826.343 535.353 852.619C535.353 854.793 531.695 862.893 531.695 865.066C530.347 871.585 530.347 878.302 530.347 884.821V884.823H531.117C539.012 894.504 546.907 896.677 556.15 901.024C556.15 897.27 554.802 893.516 556.15 889.96C558.268 878.896 561.734 868.03 562.504 850.446C563.274 858.546 563.852 865.857 564.622 873.957C564.622 878.501 567.511 882.847 568.281 887.194C568.281 893.911 569.051 900.431 569.051 907.741C580.412 913.471 591.003 918.015 603.904 921.571C608.91 919.991 613.147 918.608 617.383 916.434C617.383 912.088 617.383 905.371 619.501 901.814C621.042 897.468 623.93 902.604 625.278 900.431C627.589 896.677 629.707 891.541 631.055 887.194C631.055 894.504 633.173 906.161 633.173 913.471C634.713 907.544 638.949 908.334 643.186 906.161C648.192 903.197 649.733 898.851 656.087 895.887V863.683C656.087 861.51 653.198 856.373 653.969 853.41C656.087 846.1 656.857 840.963 656.857 832.27C656.857 830.096 655.509 827.923 655.509 825.75C657.627 816.069 659.745 805.993 660.516 794.929Z" fill="#F2F1EB"/>
</svg>
