<svg width="1217" height="1217" viewBox="0 0 1217 1217" fill="none" xmlns="http://www.w3.org/2000/svg">
<circle cx="608.462" cy="608.462" r="593.279" fill="#380516" stroke="#780001" stroke-width="30.3656"/>
<path d="M864.641 180.088L835.312 272.788L820.794 278.862H821.332L821.246 278.921V279.093H821.005L821.011 279.087L820.956 279.126H821.036L815.176 284.144C815.176 284.144 814.826 284.144 814.262 284.091L811.681 289.162H810.849L811.367 289.417H810.689L810.844 289.162H809.665L809.531 289.426H810.713L807.38 295.236H806.977L806.842 295.5L806.305 296.292C806.305 296.292 806.197 296.292 806.035 296.292C805.767 296.293 805.498 296.557 805.498 296.557L787.432 327.218C779.017 341.612 770.576 356.032 769.366 358.092C843.618 401.167 897.466 473.926 914.913 559.864C915.182 561.448 915.72 562.769 915.72 564.089C916.258 566.73 916.795 569.636 917.332 572.541C917.601 574.125 918.139 575.974 918.139 577.559C918.408 579.144 918.677 580.464 918.677 582.048C918.946 584.689 919.484 587.067 919.484 589.708C920.021 594.725 920.559 600.007 920.559 605.025H920.8C921.069 610.043 921.07 615.325 921.07 620.607V637.509C919.188 671.05 911.66 703.27 899.831 732.849C892.035 751.864 882.626 769.559 871.604 786.461C849.291 820.002 820.526 848.789 787.191 871.501H786.921C786.867 871.607 786.68 871.766 786.68 871.766L864.076 1003.29V1003.37L864.184 1003.55H864.076V1003.82L862.464 1004.61L857.624 1007.51V1007.78L857.894 1008.04L851.71 1011.47V1010.95L851.656 1010.84L851.442 1010.95L850.635 1011.47L773.507 880.244C727.106 908.317 672.99 924.586 615.137 925.114C558.144 925.642 504.916 911.38 459.214 886.027H458.946C458.892 886 458.838 885.948 458.757 885.921C458.705 885.973 458.703 886.024 458.703 886.027L385.043 1011.21L378.86 1007.78C378.86 1007.75 378.914 1007.67 378.994 1007.54L371.332 1003.29L445.02 878.104V878.051C358.214 823.594 301.436 728.412 301.436 620.607C301.436 589.707 306.006 560.128 314.609 532.133C316.222 526.851 318.104 521.57 319.986 516.288C320.254 515.231 320.792 513.911 321.329 512.59C328.857 493.311 337.997 475.352 349.019 458.186C377.192 414.161 416.873 377.53 463.515 352.705L463.274 352.282L430.637 296.557H429.938L429.401 295.764L429.266 295.5H429.131L425.637 289.426H426.631L426.444 289.162L426.309 288.898H425.099L422.41 283.616H421.335L417.303 280.182L415.34 278.835L400.635 272.788L407.894 258.262L408.082 257.866L408.029 257.787L407.894 257.999L400.635 272.788L371.601 179.825L438.782 251.131L436.954 265.657C437.25 265.34 437.439 265.128 437.439 265.128L437.707 265.393C437.869 265.235 437.976 265.128 437.976 265.128L438.782 265.921V274.636C438.782 274.636 438.272 275.35 437.331 276.3C437.519 276.406 437.708 276.644 437.842 276.829C439.093 275.364 439.843 274.391 439.858 274.373L443.353 280.447H443.084C443.031 280.473 442.899 280.627 442.896 280.631L443.353 281.239L447.116 287.049L446.578 286.521L446.498 286.679L447.251 287.868C447.036 288.29 446.471 289.162 445.503 290.218L477.494 344.887L477.737 345.309C517.739 326.373 562.527 315.836 609.761 315.836C662.183 315.836 711.379 328.249 754.661 350.433H754.931C754.983 350.433 755.061 350.484 755.065 350.486L790.444 290.218L790.631 289.875C790.578 289.822 790.447 289.693 790.444 289.69L790.174 289.426C789.099 288.106 788.562 287.313 788.562 287.313L792.863 280.447V280.71C792.863 280.842 793.024 281.16 793.32 281.503L793.669 280.975L793.75 280.87C793.618 280.714 793.407 280.454 793.401 280.447L796.896 274.373C796.904 274.385 797.117 274.698 797.433 275.138V266.185L798.24 265.393C798.244 265.401 798.515 265.927 799.315 266.713C799.341 266.74 799.395 266.817 799.396 266.819L799.315 266.185L797.433 251.131L864.641 179.825V180.088ZM864.311 1003.74L864.188 1003.54H864.311V1003.74ZM610.836 326.4C565.242 326.453 521.799 336.726 483.167 354.659H482.898C482.36 354.923 481.823 355.451 481.285 355.451C479.672 356.507 477.79 357.3 476.177 358.092C476.069 358.145 475.908 358.25 475.908 358.25V358.356L475.855 358.25C473.839 359.254 472.037 360.258 469.994 361.261C469.726 361.525 469.188 361.79 469.188 361.79C374.29 411.968 310.307 510.741 311.652 624.304C312.727 727.197 367.73 817.414 450.101 869.204V869.125H450.638L452.251 869.917C454.133 871.237 456.283 872.294 458.165 873.615C459.886 874.592 461.607 875.542 463.327 876.519H463.542L463.623 876.678C463.677 876.705 463.807 876.782 463.811 876.784L463.731 876.863L463.811 877.047H464.079C480.209 886.027 497.146 893.422 514.62 899.232C513.411 898.836 512.174 898.413 510.964 898.017C512.093 898.413 513.223 898.862 514.352 899.232C515.965 899.76 517.309 900.289 518.922 900.817C525.105 902.93 531.557 904.778 538.278 906.363C561.666 912.173 585.861 915.078 611.131 915.078C641.24 914.814 670.275 910.588 697.696 902.401C698.233 902.137 698.502 902.137 698.771 902.137V902.111C700.652 901.319 702.535 900.79 704.416 900.262C726.998 892.867 748.505 883.095 768.399 870.947C768.587 870.788 768.829 870.63 769.017 870.524L768.937 870.418C770.819 869.098 772.969 868.042 774.851 866.721L774.932 866.853C774.986 866.8 775.066 866.774 775.119 866.721C776.679 865.691 778.265 864.661 779.851 863.631L779.69 863.314C780.227 863.05 780.766 862.786 781.034 862.258L781.222 862.575C781.249 862.548 781.303 862.522 781.303 862.522H781.572C803.508 847.653 823.349 829.959 840.5 809.94C840.742 809.649 840.958 809.386 841.199 809.122C842.517 807.563 843.78 806.005 845.071 804.447C851.872 796.075 858.243 787.359 864.104 778.274C874.319 762.164 883.19 745.262 890.18 727.303H889.643C903.353 693.498 910.343 656.524 910.074 617.702C908.999 510.742 850.393 417.779 763.291 367.072H763.023C761.141 366.015 759.259 364.958 757.377 363.902C755.495 362.581 753.344 361.526 751.194 360.469C750.925 360.337 750.629 360.126 750.333 359.941H750.118L750.172 359.862C749.984 359.756 749.769 359.676 749.58 359.676H749.312C707.697 338.575 660.758 326.453 610.836 326.4ZM614.141 343.811C616.023 343.811 617.905 344.076 619.518 344.604C621.937 345.396 623.013 346.981 623.013 349.622C622.744 357.016 622.207 364.411 621.938 371.806C621.938 373.127 621.668 374.183 621.4 374.975C621.131 375.503 620.863 375.768 620.863 376.032C619.787 377.88 617.636 378.672 614.679 378.672C603.657 378.936 592.366 379.464 581.344 379.993C580.806 380.257 580.268 380.257 579.193 380.257C579.999 384.747 580.537 388.973 581.074 393.462C599.893 391.35 618.443 391.349 637.261 393.198C638.067 386.595 638.605 380.257 639.143 374.183C639.949 366.26 641.025 358.337 641.831 350.414V349.358C642.1 349.094 642.1 348.565 642.1 348.565C643.175 346.452 645.595 345.396 649.09 345.924C656.348 346.717 663.876 347.245 670.865 349.093C685.382 352.527 699.362 356.752 713.61 360.978C717.911 362.299 722.213 364.412 726.514 366.26C731.353 368.109 732.696 370.486 730.815 374.711C730.546 374.976 730.278 375.503 730.278 375.767C727.052 382.105 724.094 388.444 720.868 394.783C720.6 395.311 720.33 395.575 720.33 395.839C718.18 399.008 716.029 399.536 711.996 397.952C706.082 395.575 700.437 393.198 694.523 391.085C689.415 389.501 684.038 388.18 678.123 386.595C677.586 388.708 676.779 390.821 676.241 392.934C675.704 395.047 674.897 397.159 674.36 399.272C689.414 402.969 703.394 408.252 717.105 414.854H717.373C717.911 414.854 718.449 415.382 718.987 415.646C721.137 416.702 723.288 417.76 725.439 418.816C725.707 418.816 725.976 419.08 726.244 419.344V419.292C729.175 414.3 731.864 409.308 734.794 404.581V404.501C738.8 397.397 743.101 390.029 747.375 382.924V382.898C747.698 382.37 748.02 381.921 748.343 381.499C750.198 378.884 752.725 378.276 755.978 379.755H756.784C759.473 381.34 761.892 382.925 764.312 384.509C771.301 389.263 778.559 393.753 785.549 398.771C791.195 402.732 796.84 406.958 802.217 411.183C804.637 413.296 806.787 415.673 808.938 417.786C812.432 420.955 815.927 424.124 819.422 427.557C821.841 429.934 822.648 431.783 821.842 433.631C821.573 433.895 821.304 434.424 821.304 434.688C820.766 435.48 820.229 436.536 819.154 437.329C813.508 442.346 808.131 447.364 802.486 452.382C799.797 455.023 796.571 454.759 793.883 452.382C786.893 445.78 779.904 439.441 772.646 433.103C770.764 431.518 768.613 430.198 766.194 428.614C763.236 432.311 760.548 435.745 757.591 439.442C772.377 450.27 785.55 462.683 797.11 476.68C798.723 475.624 800.604 474.567 801.948 473.51C809.476 467.7 817.272 461.626 824.799 455.816C827.219 453.967 829.907 452.119 832.326 450.27C835.015 448.421 838.24 448.95 840.122 451.327C847.112 461.098 854.371 470.606 860.823 480.377C865.124 486.716 868.619 493.582 872.114 500.449C875.34 506.787 878.297 513.39 880.986 519.993C881.792 521.841 881.792 523.69 881.254 525.01C880.988 525.272 880.986 525.791 880.986 525.802C880.179 527.123 878.566 527.915 876.684 528.708C869.694 531.084 862.705 533.462 855.715 535.838C851.414 537.423 848.994 536.366 847.113 532.141C844.155 525.539 841.198 518.936 837.972 512.333C835.821 508.372 833.402 504.674 831.251 500.977C826.95 503.354 822.917 505.466 818.885 507.843C828.294 523.161 835.015 539.535 840.66 556.702C843.886 555.909 847.65 554.854 851.145 553.797C862.167 550.628 872.92 547.723 883.943 544.818C886.631 544.026 889.319 545.61 890.395 549.043C892.008 553.533 893.352 558.023 894.158 562.777L893.62 563.833C897.384 583.64 899.803 603.712 899.534 624.047V626.688C899.266 627.744 898.997 628.537 898.728 629.33C898.459 629.594 898.191 629.858 898.191 630.122C897.115 631.706 895.233 632.499 892.545 632.499C884.749 632.234 876.684 631.706 868.888 631.442C865.393 631.178 863.242 628.801 863.242 624.839C862.705 614.804 862.435 604.768 861.898 594.733C861.898 593.941 861.361 593.148 861.361 592.091C856.791 592.619 852.22 593.148 847.919 593.94C848.457 602.655 849.263 611.371 849.263 619.822C849.532 628.537 848.725 636.988 848.456 645.967C854.639 646.76 861.361 647.552 867.813 648.081C875.34 648.873 882.868 649.401 890.395 649.929C895.771 650.193 897.653 652.307 897.115 657.588C896.309 664.719 895.771 671.85 893.889 678.716C890.125 692.449 885.555 706.183 881.254 719.652C880.717 720.972 880.447 722.028 879.909 723.084C879.909 723.613 879.372 724.141 879.372 724.669C878.835 725.726 878.565 726.518 878.028 727.575C877.49 729.159 876.684 730.744 875.877 732.329C875.609 732.856 875.34 733.12 875.34 733.384C873.458 736.553 870.77 737.61 867.006 735.761C860.016 732.328 852.757 729.424 845.768 726.254C842.273 724.67 841.198 722.293 842.811 718.595C844.961 713.577 847.381 708.56 849.263 703.278C851.414 697.468 853.027 691.657 854.908 685.583C850.338 684.526 845.768 683.206 841.198 681.885C840.929 682.942 840.661 683.998 840.392 685.054C840.123 686.111 839.585 687.431 839.316 688.488C838.24 692.977 836.628 697.203 835.015 701.428C830.982 711.992 825.874 722.028 820.497 732.064C823.186 733.384 825.875 734.177 828.294 735.498C838.241 740.78 848.457 746.326 858.404 751.608C862.167 753.721 863.243 756.362 862.167 759.531C861.898 760.323 861.629 760.851 861.091 761.643C860.553 762.435 860.016 763.492 859.479 764.285C857.866 766.926 856.252 769.566 854.37 771.943C848.456 780.394 842.273 788.846 835.822 797.033C830.983 803.107 825.337 808.389 819.96 813.935C817.272 816.576 814.315 819.482 811.358 822.123C807.863 825.292 805.443 825.292 802.217 822.123C796.572 816.841 791.195 811.294 785.819 805.748C784.206 803.899 783.399 802.315 784.205 800.466C784.474 800.202 784.743 799.937 784.743 799.673C785.012 799.145 785.55 798.617 786.087 798.089C792.27 791.487 798.454 785.148 804.637 778.81C806.787 776.697 808.669 774.056 810.82 771.416C807.056 768.775 803.292 766.133 799.529 763.228C797.378 765.869 795.496 768.51 793.346 770.623C786.894 776.961 780.71 783.3 773.99 789.638C769.957 793.336 765.924 796.768 761.892 800.202V800.73C761.892 801.258 761.354 800.994 761.892 802.315C762.43 803.635 763.505 804.956 764.58 806.012C769.957 812.086 775.334 818.425 780.71 824.763C783.399 827.932 786.087 831.365 788.776 834.535C790.12 836.119 790.389 837.968 789.582 839.817C789.313 840.345 789.044 840.609 789.044 840.874C788.775 841.402 788.238 841.93 787.7 842.194C783.399 845.363 779.097 848.797 774.258 851.702H773.99C773.452 852.23 772.914 852.493 772.376 852.757C770.763 853.814 769.15 854.606 767.537 855.663C765.387 856.719 763.505 858.04 761.355 859.096C761.087 859.359 760.554 859.622 760.548 859.625C757.86 861.209 755.172 862.529 752.752 864.114C750.333 865.434 748.181 867.019 745.762 868.076C736.084 872.565 726.406 876.791 716.728 881.016L716.835 880.99C712.534 882.838 709.309 881.254 707.696 877.292C705.007 870.426 702.588 863.296 699.9 856.429C699.631 854.845 699.361 853.524 699.63 852.467V851.939C700.168 850.883 700.974 850.091 702.587 849.298C708.233 846.921 713.878 844.808 719.524 842.167C724.9 839.791 730.278 836.885 735.923 833.98C733.504 830.019 731.084 826.058 728.664 822.096C712.803 831.34 695.598 837.414 677.855 843.224C678.123 843.752 678.393 844.28 678.393 844.808C682.156 857.485 686.189 870.162 689.952 882.838C690.49 884.687 690.49 886.272 689.952 887.592C689.685 887.592 689.684 888.114 689.684 888.121C689.146 889.441 687.533 890.233 685.382 890.761C674.898 892.874 664.682 895.251 654.198 896.835C638.605 899.476 622.744 900.269 606.615 900.005C605.27 900.005 603.925 899.741 602.581 899.477C599.624 898.685 598.549 896.572 598.549 893.667C598.818 886.272 599.355 878.877 599.624 871.483C599.624 870.427 599.894 869.634 600.162 868.841C600.428 868.581 600.693 868.063 600.699 868.049C601.775 866.465 603.388 865.408 606.076 865.408C617.099 864.88 627.852 864.616 638.874 864.087C639.949 864.087 641.025 863.824 642.368 863.824C641.562 859.334 641.024 854.844 640.487 850.354C621.937 852.467 603.388 852.467 584.57 850.619C584.032 855.901 583.494 860.918 582.956 865.936C582.15 874.915 581.344 883.895 580.269 892.875C580 893.139 579.999 893.667 579.999 893.931C579.732 894.194 579.731 894.72 579.731 894.723C578.655 896.572 575.967 897.364 572.741 897.1C566.827 896.572 560.912 896.308 555.267 894.723C539.137 890.762 523.275 886.272 507.414 881.518C502.307 879.933 497.468 877.029 492.629 874.652C490.21 873.331 489.941 871.482 490.747 869.37V868.841C494.242 861.711 497.737 854.316 501.232 847.185C501.5 847.185 501.5 846.657 501.5 846.657C503.113 844.016 505.533 843.224 508.759 844.544C514.673 846.921 520.588 849.563 526.771 851.675C532.147 853.524 537.524 854.845 543.438 856.429C544.782 851.676 545.857 847.45 547.201 843.224C529.19 838.734 512.253 831.868 496.123 823.417H495.586C493.436 827.114 491.284 830.811 489.403 834.245C487.252 837.678 485.371 841.375 483.22 845.073C482.145 846.921 481.069 848.77 479.993 850.619C478.112 853.788 476.23 856.957 474.348 860.126C472.466 863.559 468.971 864.352 465.477 862.503C463.595 861.447 461.445 860.126 459.563 858.805C459.294 858.541 458.756 858.014 458.218 857.75H457.949C450.96 853.26 443.702 848.505 436.981 843.751C431.335 839.79 425.421 835.564 420.044 831.075C413.861 825.793 408.215 819.983 402.301 814.172C400.419 812.06 399.613 810.211 400.419 808.363V807.834C400.957 807.042 401.494 806.25 402.57 805.458C408.215 800.44 413.592 795.422 419.238 790.404C422.195 787.499 425.42 787.763 428.377 790.667C436.98 798.59 445.852 806.514 454.992 814.701C458.218 810.475 460.906 807.042 463.864 803.344C449.347 792.516 436.174 780.104 424.345 765.842C421.388 767.955 418.431 770.068 415.742 772.181C413.054 774.294 410.097 776.671 407.14 778.784L402.301 782.745C398.269 785.914 394.236 789.083 389.935 792.252C386.709 794.629 383.752 794.101 381.332 790.932C375.418 782.745 368.965 774.558 363.32 766.107C359.825 760.825 356.868 755.278 353.91 749.468C349.34 740.753 345.308 732.038 341.276 723.323C340.469 721.21 340.2 719.625 340.738 718.041C341.006 718.041 341.007 717.512 341.007 717.512C341.545 716.192 343.157 715.136 345.308 714.343C352.297 712.23 359.018 709.853 366.008 707.476C370.578 705.627 372.729 706.685 374.88 711.174C378.375 718.569 381.6 725.7 385.095 732.831C386.708 736.264 388.859 739.168 390.74 742.337C394.773 739.961 398.806 737.848 402.838 735.471C393.698 719.889 386.708 703.515 381.063 686.348C376.761 687.405 372.46 688.726 367.89 690.046C358.481 692.687 349.071 695.064 339.662 697.705C335.361 698.761 332.404 697.705 331.328 693.479C329.447 686.084 327.296 678.426 326.221 670.767C324.339 656.77 323.263 642.508 321.919 628.247C321.65 624.813 321.919 621.38 321.919 617.947C321.919 616.89 322.188 615.834 322.457 615.042C322.726 614.513 322.995 614.249 322.995 613.985C324.071 612.137 326.221 611.344 329.178 611.344C336.705 611.608 343.964 612.137 351.491 612.401C356.599 612.665 358.481 614.513 358.481 619.267C358.75 629.567 359.288 639.603 359.825 649.903V651.751C364.395 651.223 368.697 650.695 373.535 650.167C371.385 632.736 371.385 615.57 373.267 598.139C368.697 597.611 364.126 597.083 359.556 596.555C350.147 595.763 340.469 594.971 331.06 594.178C326.221 593.65 323.801 591.272 324.608 586.254C325.952 576.747 327.297 566.975 329.716 557.732C332.673 546.904 335.63 536.34 339.662 526.041C339.931 524.984 340.469 524.191 340.738 523.135C341.544 521.287 342.351 519.438 343.157 517.589C343.964 515.741 345.039 513.891 345.846 512.042C346.115 511.25 346.652 510.722 346.921 510.194C348.803 507.025 351.223 506.497 355.255 508.345C362.245 511.25 368.966 514.42 375.955 517.589C379.45 519.438 380.525 521.286 379.45 524.719V525.512C377.031 531.058 374.611 536.34 372.46 541.886C370.578 547.168 369.235 552.714 367.353 558.524C371.923 559.58 376.224 560.902 381.063 562.222C382.945 554.563 385.364 546.904 388.322 539.773C389.128 538.453 389.666 536.868 390.203 535.547C391.01 533.963 391.816 532.114 392.622 530.53C393.429 528.681 394.235 526.568 395.311 524.719V524.192C396.386 522.343 397.193 520.23 398.268 518.381C399.343 516.269 400.419 514.155 401.494 512.042C398.268 510.458 395.311 509.138 392.354 507.553C386.171 504.384 380.257 501.215 374.073 498.045C369.772 495.933 365.47 493.556 361.438 491.179C359.287 489.859 358.75 486.689 360.094 483.52C360.363 483.256 360.632 482.727 360.632 482.463C360.901 481.935 361.17 481.143 361.707 480.615C363.051 478.766 364.395 476.654 365.74 474.805C370.578 467.939 375.418 461.072 380.526 454.469C384.827 448.923 389.128 443.641 393.698 438.359C396.118 435.454 399.075 433.077 401.763 430.436C404.72 427.531 407.678 424.362 410.904 421.721C414.398 418.816 416.549 418.816 419.775 421.985C425.151 427.531 430.528 432.813 435.905 438.359C437.786 440.472 438.324 442.056 437.518 443.905C437.249 444.169 436.981 444.434 436.981 444.698C436.712 445.226 436.174 445.754 435.636 446.282C429.453 452.62 423.001 458.959 416.818 465.561C414.667 467.938 413.054 470.316 410.904 472.957C414.667 475.597 418.431 478.238 422.195 481.143C424.345 478.502 426.227 475.861 428.377 473.749C434.829 467.41 441.013 461.071 447.734 454.733C451.766 451.036 455.799 447.603 459.831 444.169V441.792C459.562 441 458.756 440.207 458.218 439.679C452.035 432.549 445.583 425.154 439.4 417.759C436.98 415.118 434.83 412.213 432.679 409.572C431.604 407.987 431.335 405.875 431.872 404.291C432.141 403.762 432.41 403.498 432.41 403.234C432.679 402.706 433.216 402.177 433.754 401.649C438.324 398.216 442.626 394.783 447.465 391.877C454.455 387.388 461.444 383.426 468.702 379.464C471.391 378.144 473.81 376.559 476.23 375.239C476.364 375.107 476.607 374.896 476.607 374.896L476.498 374.711C476.498 374.711 476.849 374.553 477.117 374.341L477.036 374.183C477.574 373.919 478.112 373.654 478.65 373.39C480.263 372.598 481.876 372.07 483.489 371.278L483.542 371.383C483.623 371.331 483.677 371.304 483.757 371.278C485.612 370.512 487.225 369.719 489.053 368.954L488.865 368.637C489.403 368.637 489.94 368.108 490.478 367.844L490.666 368.162C490.693 368.135 490.747 368.109 490.747 368.109H491.016L491.204 368.425C495.882 366.392 500.586 364.332 505.264 362.298C509.296 360.714 512.522 362.299 514.135 366.26C516.823 373.127 519.244 380.257 521.932 387.124C522.201 388.708 522.469 390.293 521.932 391.349C521.932 391.613 521.394 392.142 521.394 392.406C520.856 393.198 520.05 393.726 518.975 394.254C515.211 395.839 511.716 397.159 508.221 398.744H507.952C507.415 399.008 506.877 399.537 506.339 399.537C504.995 400.065 503.382 400.593 502.038 401.385C501.77 401.649 501.5 401.913 501.232 401.914L494.78 405.083C494.511 405.347 494.242 405.611 493.973 405.611C491.285 407.063 488.596 408.305 485.907 409.705C488.139 413.56 490.398 417.257 492.629 420.928C495.559 419.37 498.221 417.812 501.151 416.492L500.962 416.174C500.962 416.174 501.5 415.91 501.769 415.646C503.919 414.59 506.07 413.534 508.221 412.742C510.103 411.949 511.716 411.157 513.329 410.365C513.867 410.364 514.404 409.836 514.942 409.572H515.211L515.829 410.655C524.539 407.063 533.707 403.947 542.901 400.857C542.632 400.065 542.363 399.272 542.363 398.48C538.599 386.067 534.835 373.654 531.072 361.242C530.803 359.393 530.534 357.808 531.072 356.488C531.336 356.488 531.341 355.978 531.341 355.96C532.148 354.376 533.491 353.583 535.91 353.055C546.126 350.942 556.342 348.829 566.558 347.245C582.15 344.604 598.011 343.811 614.141 343.811ZM609.759 352.025C597.392 350.969 551.96 356.251 545.508 359.684C549.003 373.153 552.229 386.622 555.724 400.091C556.261 401.676 556.262 403.261 555.724 404.317C555.455 404.317 555.455 404.845 555.455 404.845C554.649 406.166 553.304 406.958 551.422 407.486C547.659 408.806 543.357 409.334 539.594 410.655C533.411 413.032 527.227 415.409 521.044 417.786H520.776C520.587 417.891 520.373 418.024 520.157 418.156L520.238 418.314L520.507 418.578H520.238C520.211 418.604 520.132 418.655 520.13 418.657L520.238 418.842C519.7 418.843 519.163 419.37 518.625 419.634L518.49 419.423C516.689 420.189 515.103 420.717 513.275 421.483H513.248C513.195 421.509 513.114 421.536 513.114 421.536L513.248 421.748C511.904 422.276 510.56 422.803 509.216 423.332C508.41 423.596 507.603 424.124 506.796 424.388L506.689 424.204C506.635 424.257 506.5 424.388 506.5 424.388C506.231 424.652 505.694 424.917 505.694 424.917C501.661 426.765 497.898 429.142 494.134 431.254C489.564 433.895 486.875 433.368 483.918 429.142C480.423 423.332 476.66 417.785 472.897 411.975C471.929 410.496 471.418 409.203 471.365 408.014C471.257 406.72 471.741 405.558 472.843 404.475C472.87 404.422 472.897 404.37 472.897 404.317C473.434 403.525 474.241 402.732 475.585 401.94C477.736 400.62 480.155 399.563 482.574 398.506C484.994 397.45 487.414 396.129 489.833 395.073C490.102 394.809 490.37 394.546 490.639 394.545L497.091 391.375C498.704 390.583 500.586 389.791 502.199 388.999C502.737 388.734 503.274 388.207 503.812 388.207H504.081C504.345 387.948 504.609 387.943 504.618 387.943C505.963 387.151 507.307 386.622 508.92 385.83C507.038 381.34 505.156 376.85 503.275 372.361C500.855 373.417 498.435 374.21 496.016 375.266H495.747C495.559 375.372 495.371 375.477 495.183 375.609L495.586 376.322H495.479C494.941 376.322 494.403 376.851 493.865 377.115C491.984 377.907 490.37 378.699 488.757 379.492C486.607 380.548 484.456 381.604 482.306 382.661C482.037 382.661 481.768 382.661 481.499 383.189L481.069 382.502C469.24 388.497 457.895 395.496 446.82 402.997C448.164 405.109 448.971 406.958 450.315 408.542C454.347 413.824 458.648 419.106 462.681 424.388C466.176 428.878 469.402 433.632 472.897 438.122C473.972 439.706 474.241 441.29 473.703 442.611C473.435 442.875 473.434 443.404 473.434 443.404C473.165 443.932 472.896 444.196 472.359 444.724C471.283 445.78 469.939 446.837 468.864 447.893C461.067 455.024 452.734 461.626 445.206 469.021C439.023 475.095 433.378 481.698 427.733 488.3C424.776 491.998 422.624 492.79 418.592 489.885C412.678 485.924 406.763 481.697 400.849 477.736C398.161 475.623 397.085 473.775 398.16 471.398C398.429 471.134 398.698 470.87 398.698 470.606C398.967 470.078 399.236 469.813 399.505 469.285C401.656 466.116 404.075 463.211 406.494 460.306C409.183 457.137 412.14 453.967 415.097 450.798C417.785 447.893 420.474 444.724 423.699 441.291C420.205 438.385 416.441 434.952 412.408 431.519C397.085 446.308 384.181 462.683 372.353 480.641C375.848 482.754 379.074 484.338 382.3 486.187C391.709 491.733 400.849 497.016 409.99 502.562C413.484 504.675 414.56 506.523 413.485 509.428C413.216 510.221 412.946 510.749 412.408 511.542C405.688 522.369 400.58 533.989 396.01 545.874C394.666 549.307 393.59 553.005 392.515 556.438C391.708 559.871 390.633 563.569 389.558 567.002C389.289 567.53 389.021 568.059 389.021 568.323C388.752 568.851 388.483 569.379 388.214 569.907C387.139 571.491 385.257 572.02 382.837 571.492C375.041 570.171 367.514 568.323 359.718 566.474C356.492 565.682 354.878 563.304 355.685 560.135C357.567 553.269 359.449 546.402 361.6 539.536C362.137 538.215 362.406 537.159 362.944 535.838C364.557 532.141 366.17 528.443 367.514 524.746C362.675 522.633 358.105 520.785 353.534 518.936C352.997 519.992 352.459 521.313 351.653 522.897C351.115 523.953 350.847 525.01 350.309 526.067C344.126 541.913 336.598 569.907 336.598 579.415C336.867 579.679 337.404 579.679 337.942 579.679C351.652 581.792 365.094 583.64 378.805 585.489C383.913 586.281 385.525 588.394 384.988 593.148C384.181 599.486 383.375 605.824 383.375 612.163C382.838 625.103 383.375 638.309 385.526 651.25C385.794 652.834 385.795 653.891 385.257 654.947C384.988 655.211 384.988 655.74 384.988 655.74C384.181 657.06 382.568 657.853 380.418 658.117C373.429 658.909 366.708 660.229 359.718 661.286C354.61 662.078 351.383 660.229 351.115 655.211C350.039 644.648 349.771 633.819 348.964 623.255V620.35H333.641C332.028 630.914 337.942 674.755 341.168 681.885C355.147 678.716 369.127 675.547 383.106 672.377C387.676 671.321 390.096 672.378 391.44 676.868C392.515 680.829 393.053 684.79 394.666 688.488C398.699 698.259 402.731 708.031 407.301 717.539C409.721 722.292 412.947 727.047 415.635 731.8C416.979 733.913 417.248 736.025 416.442 737.61C416.177 737.61 416.172 738.124 416.172 738.138C415.634 738.93 414.829 739.459 413.753 740.251C407.839 743.949 401.387 747.646 395.473 751.343C391.709 753.72 388.752 753.192 386.332 749.495C384.988 747.382 383.913 745.005 382.569 742.628C379.343 736.818 376.117 731.272 373.159 725.461C371.547 722.556 370.74 719.652 369.396 716.747C364.557 718.859 359.718 720.708 355.148 722.556C363.213 741.835 373.965 759.531 386.869 776.961C390.364 774.32 393.591 771.943 396.817 769.831C405.419 764.02 414.022 757.946 422.624 752.136C425.85 750.023 428.001 750.023 430.69 752.928C435.529 757.946 440.099 763.228 444.938 768.51C454.078 778.546 464.832 786.997 475.585 795.448C478.005 797.296 479.08 798.882 478.542 800.995V801.522C478.273 801.786 478.004 802.314 478.004 802.579C477.735 803.107 477.467 803.635 476.929 804.164C472.628 809.71 468.326 815.52 464.025 821.066C461.605 824.499 458.917 825.027 455.422 822.386C445.207 815.256 435.528 807.597 426.119 798.089C423.431 800.994 420.743 804.164 417.785 807.069C417.248 807.597 416.71 808.125 416.71 808.389V808.653C416.441 809.445 416.71 810.238 417.785 811.03C422.087 814.991 426.119 819.217 430.958 822.65C440.367 829.781 450.314 836.648 459.992 843.514C461.605 844.571 462.95 845.627 464.563 846.683H464.831C465.019 846.868 465.342 847.159 465.692 847.423C466.068 846.842 466.391 846.366 466.713 845.891C473.703 834.799 480.692 823.971 487.682 812.878C489.241 810.185 490.801 809.049 492.763 809.128C494.026 808.468 495.371 808.468 497.091 809.181C497.629 809.445 498.166 809.71 498.973 810.238C500.048 811.03 501.393 811.558 502.737 812.35H503.006C513.222 817.896 523.975 822.122 534.728 826.083C541.717 828.46 548.976 830.045 556.235 832.158C559.729 832.95 561.88 835.327 561.073 838.497C559.461 845.891 557.578 853.022 555.697 860.417C555.428 860.944 555.16 861.473 555.159 861.737C554.891 862.001 554.891 862.53 554.891 862.53C553.547 864.642 551.127 865.434 548.17 864.642C538.761 862.001 529.352 859.361 519.943 856.456C517.523 855.663 514.834 854.342 512.146 853.286C510.264 857.511 508.652 861.209 506.77 865.17C505.963 866.755 506.769 867.283 508.114 867.811C512.684 869.396 517.523 870.981 522.093 872.301C532.309 875.47 542.525 878.375 553.009 881.016C558.117 882.337 563.494 882.865 569.139 883.658C569.945 878.904 570.751 874.414 571.558 869.924C573.171 860.681 574.247 851.173 575.86 841.929C575.86 841.401 576.397 840.873 576.397 840.345C576.666 839.817 576.935 839.553 576.935 839.289C577.472 838.761 577.741 838.232 578.279 838.232C580.16 837.176 582.58 837.176 584.731 837.176C598.979 838.761 613.496 839.288 627.744 838.232C633.928 837.968 640.111 836.911 646.294 836.383C650.326 836.119 651.939 837.176 652.745 840.874C654.09 848.004 655.434 854.871 656.779 862.001C657.316 863.85 657.316 865.434 656.779 866.491C656.779 866.752 656.515 867.271 656.509 867.283C655.703 868.603 654.09 869.66 651.67 869.66C640.379 870.716 628.819 871.244 617.529 872.037H614.303V886.562C623.444 888.411 669.951 882.865 678.554 879.432V877.847C675.059 864.642 671.833 851.702 668.607 838.497C668.338 836.912 668.338 835.591 668.607 834.535C668.876 834.271 668.876 834.006 668.876 834.006C669.414 832.95 670.758 831.894 672.64 831.366C676.403 830.045 680.705 829.517 684.468 828.197C694.684 824.499 704.9 820.538 715.115 816.048C720.492 813.671 725.331 810.502 730.439 807.861C731.514 807.333 732.32 806.804 733.396 806.804H734.471C736.353 807.068 738.235 808.125 739.579 810.238C743.343 816.048 747.107 821.858 750.87 827.668C752.752 830.045 753.021 832.158 752.214 833.743C751.945 834.007 751.676 834.535 751.676 834.535L750.87 835.328C750.605 835.328 750.079 835.84 750.064 835.855C749.526 836.119 748.988 836.648 748.45 836.912C746.031 838.232 743.881 839.289 741.461 840.345C735.278 843.514 729.095 846.684 722.911 849.853H722.938C720.518 850.909 717.83 851.701 715.142 852.757C717.024 857.511 718.906 862.001 720.787 866.491C732.939 861.763 744.364 856.059 755.521 849.694L755.467 849.588C755.476 849.584 756.007 849.322 756.274 849.06C756.301 849.034 756.381 848.981 756.381 848.981L756.274 848.796C758.155 847.74 760.306 846.42 762.188 845.099L762.295 845.284C763.881 844.254 765.441 843.224 767.027 842.194C767.564 841.93 768.102 841.401 768.64 841.137H768.908L768.99 841.269C769.043 841.216 769.123 841.19 769.177 841.137C769.715 840.609 770.253 840.345 770.79 840.081H771.06C773.21 838.496 775.361 837.176 777.511 835.591C774.823 832.422 772.673 829.253 770.253 826.348C764.877 819.482 759.5 812.35 754.123 805.484C752.779 803.635 751.435 801.786 750.628 799.673C750.091 798.617 750.359 797.033 750.897 795.712C751.166 795.448 751.165 794.919 751.165 794.919V794.656C751.703 793.335 753.317 792.543 754.392 791.487C762.188 784.884 770.253 778.546 777.511 771.416C784.232 765.077 790.415 757.946 796.329 750.815C799.286 747.382 801.438 746.59 805.47 749.495C811.384 753.456 817.299 757.682 823.213 761.643C825.901 763.492 826.977 765.605 825.902 767.982C825.633 768.246 825.364 768.51 825.364 768.774C825.095 769.302 824.557 769.566 824.557 769.831C816.492 779.338 808.427 788.581 800.093 798.353C803.319 801.258 806.814 804.691 810.847 808.125C826.17 793.335 839.074 776.697 850.903 759.002C847.408 756.89 843.913 755.041 840.687 753.192C835.579 750.287 830.471 746.854 825.364 743.949C821.062 741.308 816.761 739.195 812.459 736.554C809.502 734.706 808.965 732.593 810.04 729.952C810.04 729.688 810.309 729.423 810.309 729.159C813.535 723.085 816.761 717.275 819.718 711.201C820.525 709.616 821.062 708.295 821.868 706.71C823.213 703.805 824.557 700.636 825.902 697.731C826.708 696.146 827.246 694.562 827.783 692.977C830.203 686.375 831.815 679.508 833.966 672.906C834.235 672.642 834.236 672.113 834.236 671.849C834.236 671.585 834.504 671.057 834.504 671.057C835.848 668.416 837.73 667.888 840.956 668.417C848.483 670.001 856.011 671.585 863.269 673.434C867.301 674.226 868.914 676.868 867.839 680.565C865.957 687.696 863.807 694.826 861.656 701.693C860.85 704.07 860.043 706.182 858.968 708.559C858.162 710.672 857.086 712.785 856.28 715.162C861.118 717.274 865.688 719.123 870.796 721.236C871.065 720.18 871.603 719.123 871.871 718.067C872.14 717.803 872.141 717.539 872.141 717.275C873.754 712.521 875.635 707.767 877.248 703.013C881.818 689.28 885.851 675.546 887.196 661.021C886.658 660.757 886.12 660.757 885.851 660.757C872.14 658.645 858.699 656.795 845.257 654.947C839.881 654.154 838.267 652.042 838.805 646.76C839.611 636.196 840.418 625.896 840.418 615.333C840.418 606.617 839.074 597.901 838.268 589.186C837.999 587.866 837.999 586.81 838.268 585.753C838.537 585.489 838.536 584.96 838.536 584.96C839.343 583.64 840.688 582.584 842.838 582.32C849.828 581.263 857.086 579.943 864.344 578.886C868.914 578.094 872.141 580.207 872.409 584.697C872.947 594.204 873.754 603.976 874.291 613.484V620.086H889.884L892.034 618.765C893.378 607.144 887.465 562.514 884.239 556.966C870.259 560.135 856.011 563.305 842.031 566.738C837.73 567.794 835.041 566.474 833.966 562.512C832.891 558.551 832.353 554.589 830.74 550.892C826.977 541.385 822.944 531.877 818.643 522.633C816.223 517.351 812.729 512.334 809.772 507.316C808.696 505.467 808.158 503.882 808.696 502.297V501.769C808.964 501.505 808.965 501.241 808.965 501.241C809.503 500.449 810.578 499.657 811.654 498.865C817.568 495.167 823.751 491.469 829.934 487.772C833.697 485.395 836.655 485.923 839.074 489.621C840.419 491.733 841.494 494.111 842.838 496.488C846.064 502.298 849.559 508.372 852.516 514.182C853.86 516.823 854.936 519.464 856.011 522.369C861.119 520.52 865.689 518.671 870.259 516.823C862.194 497.544 851.44 479.585 838.536 462.418C836.117 464.003 833.966 465.059 831.816 466.644C822.675 472.982 813.535 479.585 804.395 485.66C798.212 489.885 797.405 489.62 792.566 484.338C792.297 484.074 791.759 483.546 791.49 483.018C784.232 475.359 777.242 467.437 769.715 460.306C763.263 454.232 756.274 448.95 749.553 443.404C746.596 441.291 745.789 439.706 746.596 437.593C746.596 437.065 747.133 436.801 747.133 436.273C747.402 435.745 747.671 435.481 747.94 434.953C752.241 429.142 756.543 423.596 760.844 417.786C763.263 414.617 765.682 414.089 769.177 416.465C772.134 418.314 775.361 420.426 778.049 422.803C784.77 428.613 791.491 434.16 798.481 440.234C800.9 437.857 803.32 435.216 806.008 432.839C807.083 432.047 807.889 431.255 808.158 430.727V430.199C808.427 429.142 807.62 428.614 805.739 426.765C801.437 422.804 797.136 418.842 792.566 415.409C783.694 408.806 774.285 402.468 765.145 395.866C762.725 394.281 760.306 392.696 757.617 390.847C756.811 391.904 756.273 392.96 755.736 393.752C748.477 404.845 741.487 416.201 734.229 427.293C732.347 430.198 729.928 430.991 726.971 429.67H726.944L726.164 430.991H725.896C724.014 429.934 721.863 429.142 719.981 428.085L720.115 427.875C720.062 427.848 720.008 427.822 719.981 427.822C717.83 426.765 715.679 425.708 713.529 424.652C713.448 424.652 713.26 424.599 713.26 424.599V424.652C712.722 424.652 712.184 424.124 711.647 423.86L712.32 422.75C710.492 421.958 708.905 421.192 707.077 420.426C697.668 415.937 688.259 411.711 678.043 409.598C674.28 408.806 670.784 407.486 667.021 406.429C663.795 405.637 662.182 403.26 662.989 400.091C664.87 392.961 666.484 385.829 668.365 378.699C668.634 378.435 668.634 377.906 668.634 377.642C668.903 377.114 669.172 376.586 669.441 376.058C670.785 374.209 672.935 373.681 676.161 374.473C684.764 376.85 693.366 379.227 701.969 381.868C705.195 382.924 708.421 384.509 711.916 385.83C714.067 381.34 716.217 376.85 718.099 372.361C706.539 366.551 666.483 355.987 654.923 355.987C654.654 356.779 654.386 357.835 654.386 358.627C652.235 371.304 650.353 383.717 648.471 396.394C648.471 397.186 647.934 397.978 647.934 398.506C647.665 399.034 647.127 399.299 647.127 399.827C645.783 401.939 643.632 402.468 640.406 401.94C619.975 399.563 599.544 399.563 579.113 402.468C573.736 402.996 571.854 401.94 571.047 396.658C569.972 390.584 568.897 384.509 567.553 378.435C567.015 375.794 567.015 373.945 567.553 372.361V372.096C568.628 370.248 570.779 369.191 574.542 368.927C583.951 368.135 593.629 367.607 603.307 367.079H609.759V352.025ZM600.625 410.634C638.665 410.37 673.774 419.799 703.803 436.595L703.857 436.516H704.126C704.664 436.516 705.201 437.044 705.739 437.308C707.889 438.364 709.771 439.685 711.653 441.005C713.534 442.062 715.416 443.382 717.298 444.703H717.568L717.46 444.888C717.487 444.915 717.568 444.967 717.568 444.967H717.836C773.485 482.469 809.239 545.853 810.583 615.311V615.365C810.61 617.512 810.611 619.634 810.611 621.755C810.1 688.044 780.394 745.328 734.773 783.226H734.504C734.235 783.49 733.697 784.019 733.159 784.283C731.547 785.339 730.202 786.659 728.589 787.715C726.707 789.3 724.825 790.62 722.944 791.941C722.679 792.201 722.154 792.461 722.138 792.469C688.534 816.238 647.671 830.236 604.389 830.236C568.096 830.236 534.761 820.993 505.995 805.411H505.727C503.845 804.354 501.963 803.297 500.081 802.241C498.2 800.92 496.049 799.864 494.167 798.543C494.006 798.385 493.844 798.306 493.683 798.174C493.36 798.016 493.064 797.831 492.769 797.62C492.69 797.594 492.558 797.517 492.554 797.514H492.285C436.637 761.333 400.613 699.269 397.656 631.923C393.623 541.469 442.954 468.393 510.808 433.479L510.566 433.056C510.835 433.056 511.103 432.792 511.372 432.528C513.523 431.471 515.674 430.415 517.824 429.359C519.437 428.567 521.319 427.774 522.932 426.982C523.47 426.982 524.008 426.454 524.545 426.19H524.814L524.975 426.48H525.352C549.009 416.444 574.549 410.898 600.625 410.634ZM699.018 445.759C668.64 428.857 632.885 419.614 593.635 421.462C571.86 422.519 550.622 427.273 530.729 435.459H530.459C529.922 435.724 529.384 436.251 528.847 436.251C526.965 437.044 525.352 437.836 523.47 438.628C521.319 439.685 519.168 440.742 517.018 441.798C516.749 442.062 516.48 442.327 516.211 442.327C453.573 474.019 408.141 539.515 407.334 620.593C407.603 691.319 443.304 753.093 497.285 788.482L497.393 788.296H497.661C498.199 788.56 498.737 789.089 499.006 789.353C500.888 790.673 503.038 791.994 504.92 793.05C506.802 794.107 508.684 795.163 510.566 796.219H510.834L510.727 796.431C510.753 796.431 510.829 796.481 510.834 796.484H511.104L511.05 796.589C538.417 811.3 569.521 819.724 602.776 819.724C645.251 819.724 684.501 806.519 716.761 783.542C717.03 783.278 717.568 783.015 717.568 783.015C719.449 781.695 721.331 780.374 723.213 778.79C724.826 777.469 726.439 776.412 727.783 775.091C728.321 774.827 728.59 774.3 729.127 774.036H729.665C733.725 770.602 737.677 766.984 741.467 763.234C778.109 726.867 800.637 676.001 800.637 619.273C800.637 552.984 766.764 490.393 712.729 453.947H712.459C710.577 452.626 708.696 451.57 706.814 450.25C706.249 449.88 705.685 449.483 705.12 449.114C704.314 448.586 703.534 448.083 702.7 447.582C702.109 447.238 701.545 446.869 700.9 446.552C700.819 446.526 700.685 446.446 700.685 446.446L700.631 446.552C700.093 446.288 699.555 446.023 699.018 445.759ZM609.775 466.372V467.165L642.303 540.583V541.112L643.379 542.96L646.873 550.883L650.1 558.279V558.807L717.576 710.136H718.115C721.609 718.059 726.986 724.133 733.169 728.359C739.352 731.792 745.535 733.64 751.718 733.64H754.945V737.074H707.738L707.899 737.338H707.361L706.285 735.49H706.716L706.555 735.225H706.017L707.092 737.074H668.112V733.64H671.606C675.638 733.64 679.672 732.056 683.973 728.359C683.98 728.352 684.511 727.831 684.779 727.831C686.66 725.454 687.736 722.813 688.005 719.908C688.005 718.323 688.005 716.474 687.737 714.625L679.133 693.761L674.564 682.406L673.488 679.764L635.045 585.216V584.689L631.819 577.03L628.593 568.842L627.786 566.73V566.202L605.473 512.061L592.838 541.905V542.432L591.763 544.545L589.074 551.148L585.579 559.334L585.042 560.391L521.597 710.4H522.404C519.715 718.323 519.715 723.341 524.285 727.831C525.898 729.943 527.78 731.527 529.931 732.32H530.469C531.006 732.32 531.544 732.848 532.081 732.848C533.694 733.376 535.576 733.64 537.458 733.64H540.953V737.074H463.26V733.64H466.755C472.132 733.64 478.315 731.792 484.498 728.359C488.8 725.982 492.833 722.02 496.327 717.002L575.095 542.96L575.633 541.905L579.127 533.981L582.085 527.643L582.891 525.794V525.266L592.031 505.195C594.72 499.121 597.408 493.046 599.021 488.821C600.903 484.595 602.516 480.105 604.398 475.879C606.28 471.654 606.28 467.956 606.28 466.372H609.775ZM495.718 376.514L495.594 376.309H495.718V376.514ZM447.364 288.007L447.253 287.812C447.319 287.661 447.364 287.574 447.364 287.574V288.007ZM798.24 276.221L798.508 276.485V276.221C798.025 275.509 797.568 275.244 797.46 275.191C797.675 275.481 797.944 275.825 798.24 276.221Z" fill="#F2F1EB"/>
</svg>
