<svg width="1217" height="1217" viewBox="0 0 1217 1217" fill="none" xmlns="http://www.w3.org/2000/svg">
<circle cx="608.462" cy="608.462" r="593.279" fill="#1C1406" stroke="#855A1D" stroke-width="30.3656"/>
<path d="M665.533 852.692L805.42 761.19C809.155 758.862 810.276 754.206 808.035 750.446C805.047 745.611 800.751 738.09 796.082 729.137C781.701 701.023 763.771 657.689 773.483 628.859C774.791 625.278 776.471 621.697 778.713 618.653C778.899 618.294 779.273 617.936 779.46 617.578C789.919 595.016 795.895 569.947 795.895 543.624C795.895 540.043 795.522 533.059 795.522 533.059C796.829 532.522 803.366 526.613 803.366 517.122C803.366 507.631 798.136 500.111 791.599 500.111H790.479C771.242 425.082 703.073 368.318 620.336 362.767H619.028C616.414 347.367 611.745 337.16 606.702 337.16C601.659 337.339 596.99 347.367 594.375 362.767C511.265 367.781 442.722 424.545 423.298 499.932H421.991C415.454 499.932 410.225 509.78 410.225 516.943C410.225 524.106 413.4 530.194 417.695 532.701V543.624C417.695 569.947 423.485 595.016 434.131 617.578C434.318 617.936 434.691 618.294 434.878 618.653C437.306 621.876 438.8 625.278 440.107 629.039C449.819 657.689 432.076 701.023 417.509 729.137C412.839 738.09 408.731 745.432 405.742 750.266C403.501 754.027 404.622 758.682 408.357 761.01L548.244 852.513C554.034 856.453 561.878 851.976 561.318 845.172L558.33 814.193L548.991 716.244L539.466 617.578C539.093 613.639 536.478 610.057 532.556 608.446L483.997 588.928C479.141 586.958 476.34 582.123 477.087 577.109L481.196 551.324C482.129 544.698 489.04 540.58 495.576 542.37L581.115 565.649C586.905 567.26 590.453 572.812 589.146 578.542L570.283 660.912L599.418 672.91L606.889 675.954L614.359 672.91L643.495 660.912L624.631 578.542C623.324 572.812 626.873 567.26 632.662 565.649L718.201 542.37C724.738 540.759 731.461 544.877 732.582 551.324L736.691 577.109C737.438 582.123 734.636 586.958 729.78 588.928L681.221 608.446C677.299 610.057 674.684 613.46 674.311 617.399L664.786 716.065L655.448 813.835L652.459 845.351C651.712 851.976 659.556 856.632 665.533 852.692Z" fill="#F2F1EB"/>
</svg>
