<svg width="1217" height="1217" viewBox="0 0 1217 1217" fill="none" xmlns="http://www.w3.org/2000/svg">
<circle cx="608.462" cy="608.462" r="593.279" fill="url(#paint0_linear_17_942)" stroke="#DABF98" stroke-width="30.3656"/>
<path d="M904.03 777.522L904.263 776.823C868.591 754.457 828.022 781.483 828.022 781.483C828.022 781.483 779.993 743.741 749.683 763.311C731.497 668.955 641.034 647.288 622.148 647.288C603.263 647.288 506.738 651.948 480.391 721.375H338.634V741.644H430.497C407.648 758.418 391.327 780.551 391.327 780.784C391.327 780.784 373.841 765.873 348.194 767.97C280.113 776.823 269.854 816.429 263.792 859.763C258.43 903.563 335.37 990.463 411.611 938.742C469.666 987.9 543.809 948.76 543.809 948.76C543.809 948.76 543.809 948.061 528.887 935.947C500.443 945.965 472.231 962.972 414.876 913.115C331.407 963.671 290.139 883.061 290.139 882.828C270.554 836.232 301.563 804.547 325.811 790.336C350.059 776.124 406.016 795.694 399.954 832.039C394.591 869.082 364.748 867.684 356.121 865.122C347.494 862.559 345.396 849.512 345.396 849.046C345.396 847.648 329.308 855.803 340.033 871.412C393.425 921.269 441.222 822.254 406.249 792.433C415.808 766.106 459.641 742.576 491.35 750.73C513.732 698.077 537.98 678.507 608.859 670.586C679.737 661.733 782.324 767.038 706.783 858.132C624.48 937.577 565.725 865.588 565.725 865.588C552.202 853.473 536.814 778.687 595.336 775.192C653.391 771.931 643.832 816.895 637.07 827.845C631.008 838.562 615.62 831.34 615.387 831.107L613.289 833.903C613.289 833.903 605.828 849.512 631.474 849.512C657.121 849.512 670.644 807.809 657.121 787.54C607.926 726.267 545.208 764.708 534.25 811.071C524.924 851.609 554.534 913.581 628.677 916.143C702.819 918.706 759.709 837.863 750.149 785.443C765.771 772.63 817.064 788.239 812.168 796.16C777.195 854.172 823.592 883.061 823.592 883.061C823.592 883.061 871.622 898.67 879.549 874.208C880.948 870.247 882.813 855.337 873.487 854.638C872.088 854.638 870.223 855.336 869.524 856.734C839.214 899.835 792.583 829.01 845.975 795.461C887.243 771.232 931.775 812.935 933.641 852.774C935.739 891.914 891.207 962.739 807.505 918.24C759.475 967.398 696.058 939.208 696.058 939.208L678.571 948.76C696.058 970.893 772.998 976.485 810.769 941.305C871.389 971.592 921.283 927.326 921.517 927.093C982.836 860.928 940.402 798.956 904.03 777.522Z" fill="#F2F1EB"/>
<path d="M879.243 721.36H756.372V741.629H879.243V721.36Z" fill="#F2F1EB"/>
<path d="M547.249 509.122L547.948 509.821L550.047 637.958L566.834 630.503V507.724C570.098 505.627 572.896 501.667 572.896 501.667V489.552H506.214C506.214 489.552 504.815 494.211 506.214 499.57C507.613 504.928 511.577 507.724 511.577 507.724V662.654C512.276 661.722 520.67 655.198 525.099 652.636C529.063 650.073 528.364 646.578 528.364 646.578L531.628 509.122H547.249Z" fill="#F2F1EB"/>
<path d="M869.067 447.615H347.504V469.748H869.067V447.615Z" fill="#F2F1EB"/>
<path d="M900.984 399.86H901.683L608.144 202.296L308.542 401.957V426.187H900.984V399.86ZM569.674 401.258L605.346 384.484L643.816 401.258H569.674ZM706.534 401.025V400.559L608.61 359.322L511.385 399.162H350.743L609.31 224.429L867.177 401.025H706.534Z" fill="#F2F1EB"/>
<path d="M711.6 499.57C712.999 494.211 711.6 489.552 711.6 489.552H644.918V501.667C644.918 501.667 647.716 505.627 650.98 507.724V630.503L667.767 637.958L669.865 509.821H685.487L688.751 646.811C688.751 646.811 688.751 650.306 692.015 652.869C695.279 655.664 706.237 662.887 706.237 662.887V507.724C705.538 507.724 709.501 504.928 710.9 499.57H711.6Z" fill="#F2F1EB"/>
<path d="M771.309 682.463V699.936H856.41V681.065H845.451L842.654 508.429C842.654 508.429 848.716 506.333 849.415 500.275C849.415 494.218 850.814 490.956 850.814 490.956H782.733C782.733 490.956 779.936 497.712 782.733 502.372C785.531 506.333 789.495 508.429 789.495 508.429L785.531 682.463H771.309ZM806.981 509.827H821.903L824.701 679.667H803.717L806.981 509.827Z" fill="#F2F1EB"/>
<path d="M360.548 680.363V699.234H445.649V681.761H431.194L427.23 507.727C427.23 507.727 431.194 505.63 433.991 501.67C436.789 497.709 433.991 490.254 433.991 490.254H365.911C365.911 490.254 365.911 493.516 367.31 499.573C367.31 505.63 374.071 507.727 374.071 507.727L371.273 680.363H360.548ZM394.122 509.824H409.044L412.308 679.664H391.325L394.122 509.824Z" fill="#F2F1EB"/>
<defs>
<linearGradient id="paint0_linear_17_942" x1="1663.32" y1="-685.559" x2="-213.535" y2="989.003" gradientUnits="userSpaceOnUse">
<stop stop-color="#422A08"/>
<stop offset="1" stop-color="#98641A"/>
</linearGradient>
</defs>
</svg>
